<?xml version="1.0" encoding="UTF-8" standalone="no"?>
<!-- Created with Inkscape (http://www.inkscape.org/) -->

<svg
   xmlns:dc="http://purl.org/dc/elements/1.1/"
   xmlns:cc="http://creativecommons.org/ns#"
   xmlns:rdf="http://www.w3.org/1999/02/22-rdf-syntax-ns#"
   xmlns:svg="http://www.w3.org/2000/svg"
   xmlns="http://www.w3.org/2000/svg"
   xmlns:sodipodi="http://sodipodi.sourceforge.net/DTD/sodipodi-0.dtd"
   xmlns:inkscape="http://www.inkscape.org/namespaces/inkscape"
   width="500"
   height="500"
   id="svg2"
   version="1.1"
   inkscape:version="0.48.2 r9819"
   sodipodi:docname="drawing.svg">
  <defs
     id="defs4" />
  <sodipodi:namedview
     id="base"
     pagecolor="#ffffff"
     bordercolor="#666666"
     borderopacity="1.0"
     inkscape:pageopacity="0.0"
     inkscape:pageshadow="2"
     inkscape:zoom="2.8"
     inkscape:cx="103.46117"
     inkscape:cy="376.80357"
     inkscape:document-units="px"
     inkscape:current-layer="layer1"
     showgrid="false"
     showguides="true"
     inkscape:guide-bbox="true"
     inkscape:window-width="1181"
     inkscape:window-height="870"
     inkscape:window-x="4"
     inkscape:window-y="0"
     inkscape:window-maximized="0" />
  <metadata
     id="metadata7">
    <rdf:RDF>
      <cc:Work
         rdf:about="">
        <dc:format>image/svg+xml</dc:format>
        <dc:type
           rdf:resource="http://purl.org/dc/dcmitype/StillImage" />
        <dc:title></dc:title>
      </cc:Work>
    </rdf:RDF>
  </metadata>
  <g
     inkscape:label="Layer 1"
     inkscape:groupmode="layer"
     id="layer1"
     transform="translate(0,-552.36218)"
     style="display:inline">
    <text
       xml:space="preserve"
       style="font-size:40px;font-style:normal;font-weight:normal;line-height:125%;letter-spacing:0px;word-spacing:0px;fill:#000000;fill-opacity:1;stroke:none;font-family:Sans"
       x="100.00001"
       y="769.50507"
       id="text2985"
       sodipodi:linespacing="125%"><tspan
         sodipodi:role="line"
         id="tspan2987"
         x="100.00001"
         y="769.50507"
         style="font-style:normal;font-variant:normal;font-weight:normal;font-stretch:normal;font-family:'Admiration Pains ';-inkscape-font-specification:'Admiration Pains '">Rebecca Sagalyn</tspan></text>
  </g>
  <g
     transform="translate(0,-552.36218)"
     id="g3791"
     inkscape:groupmode="layer"
     inkscape:label="R"
     style="display:none">
    <g
       id="g3797"
       style="font-size:40px;font-style:normal;font-weight:normal;line-height:125%;letter-spacing:0px;word-spacing:0px;fill:#000000;fill-opacity:1;stroke:none;font-family:Sans">
      <path
         inkscape:connector-curvature="0"
         id="path3799"
         style="font-variant:normal;font-stretch:normal;font-family:'Admiration Pains ';-inkscape-font-specification:'Admiration Pains '"
         d="m 115.18366,603.58909 0.0977,0.17578 c -2.89065,1.48443 -4.34247,2.43495 -4.35547,2.85157 l 0,0.27343 c 1.10675,5e-5 2.96872,0.31906 5.58593,0.95703 3.94529,1.48442 6.75127,3.81515 8.41797,6.99219 -3e-5,0.19535 0.15622,0.54691 0.46875,1.05469 -3e-5,0.39066 0.13017,1.21097 0.39063,2.46094 -4e-5,2.90367 -0.63155,5.48831 -1.89453,7.7539 -3.73701,5.18232 -9.26435,7.77346 -16.58203,7.77344 l -1.13282,0 0,0.0977 c 1.88801,1.96616 3.11847,3.54168 3.69141,4.72656 0.50779,0.61199 1.20441,1.7448 2.08984,3.39844 2.43487,5.01302 4.29685,8.48958 5.58594,10.42968 l 2.55859,3.4961 c 1.53643,1.9401 2.98825,3.29426 4.35547,4.0625 1.26299,1.18489 3.24866,2.16796 5.95703,2.94922 0.26038,0.11717 0.92444,0.33853 1.99219,0.66406 0.0651,-10e-6 0.0976,-0.0326 0.0977,-0.0977 l 0.46875,0.0977 c 0.80724,-10e-6 1.69266,0.026 2.65625,0.0781 5.4687,-10e-6 10.39057,-1.79688 14.76562,-5.39062 2.87754,-2.7474 4.60931,-4.79818 5.19531,-6.15234 0.67702,-0.82032 1.06114,-1.23047 1.15235,-1.23047 0.4817,0.29948 1.45826,1.97265 2.92969,5.01953 0.28638,0.3776 1.1718,2.17447 2.65625,5.39062 l 0,0.0977 c -1.65372,1.60155 -5.37768,3.61978 -11.17188,6.05469 -3.28131,1.83592 -7.44797,2.75389 -12.5,2.7539 -2.20057,-1e-5 -4.72661,-0.37762 -7.57812,-1.13281 -1.52348,-0.57293 -2.4089,-0.85939 -2.65625,-0.85937 -2.74744,-1.45835 -4.60941,-2.65627 -5.58594,-3.59375 -2.08337,-1.80991 -3.69144,-3.60678 -4.82422,-5.39063 -1.74482,-2.91667 -2.97528,-5.41016 -3.69141,-7.48047 -0.75523,-1.60156 -1.64064,-3.78255 -2.65625,-6.54297 -1.14585,-2.64322 -2.46746,-4.97394 -3.96484,-6.99218 -1.06772,-1.43228 -2.14194,-2.72785 -3.22266,-3.88672 -0.0781,-0.0651 -0.23438,-0.0976 -0.46875,-0.0977 -1.02865,2.26564 -1.79037,3.71746 -2.28515,4.35547 -2.65626,3.15105 -4.863289,5.29949 -6.621095,6.44531 -1.953128,1.35417 -4.192709,2.48699 -6.71875,3.39844 -0.442706,-0.0651 -0.66406,-0.15625 -0.664062,-0.27344 l 0,-0.0977 c 0.02604,-0.11719 0.970053,-0.6901 2.832031,-1.71875 2.760413,-1.70573 4.876297,-4.03645 6.347656,-6.99219 1.302075,-2.1354 2.376293,-4.7591 3.22266,-7.8711 0.98957,-3.41143 1.77733,-7.60413 2.36328,-12.57812 0.10415,-0.2083 0.29295,-0.93747 0.5664,-2.1875 0.58593,-2.55205 1.97916,-5.26689 4.17969,-8.14453 l 0,-0.0781 c -2e-5,-0.13016 -0.0651,-0.19526 -0.19531,-0.19531 l -0.19531,0 c -2.29169,5e-5 -4.65496,0.47531 -7.089847,1.42578 -2.643237,1.38025 -4.28386,2.51306 -4.921875,3.39844 -1.223962,0.63806 -2.207034,2.12243 -2.949219,4.45312 -0.117189,0.61202 -0.175783,0.95707 -0.175781,1.03516 l 0,0.56641 c 0.221352,1.45836 0.657549,2.50003 1.308594,3.125 1.354162,1.08076 2.649733,1.62112 3.886718,1.62109 l 2.363282,-0.48828 0.09766,0 c 0.130199,0.0261 0.195303,0.0912 0.195312,0.19531 l 0,0.19531 c -9e-6,0.36462 -1.139331,0.74222 -3.417968,1.13282 l -0.175782,0 c -1.132817,2e-5 -2.141931,-0.37758 -3.027343,-1.13282 -1.588544,-1.23694 -2.382814,-2.78642 -2.382813,-4.64843 l 0.09766,-0.17578 c 0,-0.0521 -0.03255,-0.24086 -0.09766,-0.56641 -10e-7,-1.60153 0.885415,-3.49606 2.65625,-5.68359 2.304682,-1.91402 4.166659,-3.14449 5.585938,-3.69141 1.796864,-0.97652 4.635404,-1.67313 8.515624,-2.08984 1.08071,-0.039 1.62107,-0.10413 1.62109,-0.19532 2.4479,-2.20047 4.53123,-3.30073 6.25,-3.30078 m -5.8789,4.92188 c -1.32815,2.29171 -2.27215,5.82686 -2.83203,10.60547 -0.19533,2.16149 -0.29299,3.5482 -0.29297,4.16015 l 0,0.3711 -0.3711,2.28515 0.0977,0.17578 -1.23047,6.15235 0,0.19531 c 1.05468,0.19533 1.77733,0.29299 2.16797,0.29297 0.039,2e-5 0.16926,-0.0325 0.39063,-0.0977 l 0.17578,0.0977 c 4.11456,2e-5 7.71482,-1.42576 10.80078,-4.27735 1.28903,-1.53643 2.07679,-2.82549 2.36328,-3.86718 0.69008,-1.21091 1.03513,-2.94919 1.03516,-5.21485 l 0,-0.27343 c -0.24743,-2.12236 -0.71618,-3.73695 -1.40625,-4.84375 -1.05472,-1.65361 -2.44794,-2.97522 -4.17969,-3.96485 -1.53648,-0.87235 -3.45705,-1.47131 -5.76172,-1.79687 l -0.95703,0 m -3.22266,4.16015 0.19532,0.0977 0.29297,0 c -2e-5,-0.29944 0.18878,-0.93095 0.5664,-1.89453 l 0,-0.19531 c -0.70314,0.79431 -1.0547,1.45837 -1.05469,1.99218 m 15.52735,-0.5664 c 0.0651,0.11723 0.0976,0.20837 0.0977,0.27343 l 0.0977,0 0,-0.27343 -0.19531,0 m 0.39062,0.66406 c 1.06768,2.12243 1.60153,3.418 1.60157,3.88672 l 0.0977,0 0,-0.19531 c -0.46878,-2.3958 -0.97659,-3.59371 -1.52343,-3.59375 -4e-5,-0.0651 -0.0261,-0.0976 -0.0781,-0.0977 l -0.0977,0 m -16.09375,2.07031 c -0.0651,0.3516 -0.0977,0.60551 -0.0977,0.76172 l 0,0.0977 0.0977,0 0.0977,-0.46875 0,-0.39063 -0.0977,0 m -0.29297,1.42578 -0.27343,1.99219 0.17578,0 c -2e-5,-0.15621 0.0976,-0.66403 0.29297,-1.52344 l 0,-0.46875 -0.19532,0 m 16.95313,0.0977 0,0.0977 c 0.11716,3e-5 0.27341,1.2305 0.46875,3.6914 0.0651,3e-5 0.0976,0.0326 0.0977,0.0977 -4e-5,0.31253 -0.25394,1.63414 -0.76172,3.96484 0.35153,-0.37757 0.72913,-1.44528 1.13281,-3.20312 0.13018,-0.67705 0.19528,-1.11976 0.19531,-1.32813 l 0,-1.05469 c -0.19534,4e-5 -0.54039,-0.75517 -1.03515,-2.26562 l -0.0977,0 m 1.99219,2.36328 0.0781,0.95703 c -0.18232,1.23701 -0.40368,2.11592 -0.66406,2.63672 l 0,0.29297 c 0.29945,3e-5 0.55335,-0.85283 0.76172,-2.55859 l 0,-1.32813 -0.17578,0 m -21.21094,5.48828 0,1.05469 c 0.15624,3e-5 0.50129,-1.8294 1.03516,-5.48828 -0.13023,3e-5 -0.31903,0.78779 -0.56641,2.36328 l -0.46875,2.07031 m 19.98047,0.48828 c 0.15622,3e-5 0.27991,-0.25387 0.37109,-0.76172 l 0,-0.0976 c -0.15628,3e-5 -0.27998,0.28649 -0.37109,0.85937 m -20.54688,-0.58593 0,0.29296 c 0.11718,3e-5 0.17577,-0.0651 0.17578,-0.19531 l 0,-0.0977 -0.17578,0 m 1.89453,1.8164 c -1e-5,0.0912 -0.0977,0.69013 -0.29296,1.79688 l 0,0.17578 0.0977,0 c 0.18227,-0.88539 0.27342,-1.5169 0.27343,-1.89453 l 0,-0.0781 -0.0781,0 m -1.71875,1.13281 0,0.27344 c 0.1302,3e-5 0.1953,-0.0586 0.19532,-0.17578 l 0,-0.0977 -0.19532,0 m -0.17578,0.56641 c -1e-5,0.15628 -0.13022,0.69013 -0.39062,1.60156 l 0.19531,0 c 0.1953,3e-5 0.319,-0.53383 0.37109,-1.60156 l -0.17578,0 m 1.50391,0.46875 -0.0977,0.56641 0.19531,0 0,-0.56641 -0.0977,0 m -3.59375,7.01172 c -10e-6,0.0651 -0.18881,0.47528 -0.56641,1.23047 l 0.19532,0.0976 0.0977,0 c 0.31249,-0.71612 0.46874,-1.12628 0.46875,-1.23046 l 0,-0.0977 -0.19532,0 m -2.656245,5.11719 c -8e-6,0.14324 -0.09115,0.33204 -0.273438,0.5664 l 0,0.0781 0.09766,0 c 0.07812,10e-6 0.234366,-0.18879 0.46875,-0.56641 l -0.195313,-0.0781 -0.09766,0 m -2.070313,2.83203 0,0.0976 0.09766,0 c 0.09114,10e-6 0.182285,-0.0976 0.273437,-0.29296 l 0,-0.0977 c -0.247402,0.10418 -0.3711,0.20183 -0.371094,0.29297 m 17.695316,4.82422 0,0.0977 c 0.46872,1.09376 1.25648,2.61068 2.36328,4.55078 l 0.19531,0 0,-0.19531 c -2e-5,-0.22135 -0.56643,-1.23047 -1.69922,-3.02734 -0.44273,-0.84635 -0.66409,-1.32161 -0.66406,-1.42578 l -0.19531,0 m 42.51953,7.38281 c -0.65111,0.85937 -1.09381,1.49088 -1.32812,1.89453 0.57285,-0.37761 1.07415,-0.91146 1.5039,-1.60156 l 0,-0.0977 c -6e-5,-0.13021 -0.0587,-0.19531 -0.17578,-0.19531 m 1.875,2.46094 0,0.39062 c -7e-5,0.20833 0.0976,0.55338 0.29297,1.03516 l 0.0977,0 c 0.15618,-0.13022 0.27988,-0.19532 0.37109,-0.19531 l 0,-0.0977 c -7e-5,-0.16928 -0.15632,-0.54688 -0.46875,-1.13281 l -0.29297,0 m -3.02734,0.66406 0,0.0977 c 0.0911,-10e-6 0.18874,-0.0977 0.29297,-0.29297 l -0.0977,0 c -0.13027,0.026 -0.19538,0.0911 -0.19531,0.19531 m -2.73438,3.88672 0,0.27344 0.0977,0 c 2.18743,-1.41928 3.82806,-2.58465 4.92187,-3.4961 l 0.0977,-0.19531 0,-0.37109 -0.0977,0 c -2.59121,2.01822 -4.26438,3.28124 -5.01953,3.78906 m -31.71875,-3.32031 c 0.24737,0.42968 0.75518,1.02863 1.52344,1.79687 l 0.74219,1.05469 0,0.46875 c 0.96351,0.72915 2.13538,1.48436 3.51562,2.26562 l 0.0781,0 0,-0.83984 c -1.0417,-0.36459 -2.96227,-1.94662 -5.76172,-4.74609 l -0.0977,0 m 28.30078,6.05468 c 0.26036,0.26041 0.39057,0.45572 0.39063,0.58594 1.82286,-0.87241 3.55462,-1.79037 5.19531,-2.75391 0.45567,-10e-6 1.05462,-0.28646 1.79688,-0.85937 1.19785,-0.67709 2.18092,-1.3672 2.94922,-2.07031 l 0,-0.19532 c -0.58601,0.24739 -2.01179,1.0026 -4.27735,2.26563 -2.51308,1.48436 -4.53131,2.49348 -6.05469,3.02734 m 2.65625,-4.0625 0,0.0977 0.29297,0 c 0.55984,-0.4297 0.83978,-0.6836 0.83985,-0.76172 l -0.19532,0 c -0.49485,0.4427 -0.80735,0.66406 -0.9375,0.66406 m -3.32031,0.29297 0.0977,0 c 0.65098,-0.33855 1.00254,-0.59245 1.05469,-0.76172 l -0.0977,0 c -0.70318,0.42968 -1.05475,0.68359 -1.05469,0.76172 m 11.73828,0.0781 0.0977,0 c 0.37753,-10e-6 0.63144,-0.18881 0.76172,-0.56641 l -0.19531,-0.0781 -0.0977,0 c -0.10424,-10e-6 -0.29304,0.21483 -0.56641,0.64453 m -8.78906,0 0.0781,0 c 0.13014,-1e-5 0.19525,-0.0586 0.19531,-0.17578 l -0.0977,0 c -0.11725,0.013 -0.17584,0.0716 -0.17578,0.17578 m -3.61328,0.19531 0.29297,0 c 0.0911,-10e-6 0.18223,-0.0912 0.27344,-0.27344 l -0.27344,0 c -0.0912,-1e-5 -0.18886,0.0911 -0.29297,0.27344 m -0.46875,0.29297 0.0977,0 c 0.0911,-10e-6 0.18874,-0.0977 0.29296,-0.29297 l -0.0976,0 c -0.0912,-10e-6 -0.18886,0.0977 -0.29297,0.29297 m 3.22266,0.0976 0.0976,0 c 0.11713,-0.0651 0.20827,-0.0977 0.27344,-0.0976 l 0,-0.19531 -0.0781,0 c -0.0912,-10e-6 -0.18886,0.0976 -0.29296,0.29296 m -25.09766,0.0781 c 0.40361,0.4427 0.72262,0.66405 0.95703,0.66406 -0.26045,-0.44272 -0.57946,-0.66407 -0.95703,-0.66406 m 20.37109,1.89453 0,0.19531 c 0.10411,-1e-5 0.38406,-0.0977 0.83985,-0.29297 l 0,0.0977 c 1.79681,-0.71616 2.90358,-1.28256 3.32031,-1.69922 l -0.0977,0 c -0.49485,0.24739 -1.06125,0.46874 -1.69922,0.66406 -0.42974,0.28645 -1.2175,0.6315 -2.36328,1.03516 m 5.29297,-1.23047 c -0.8985,0.91145 -3.29433,1.89452 -7.1875,2.94922 -0.13026,0.013 -0.19536,0.0716 -0.19531,0.17578 l 0.29297,0 c 3.4114,-0.93751 5.96348,-1.84897 7.65625,-2.73437 l 0,-0.0977 c -0.0652,-0.19532 -0.25397,-0.29298 -0.56641,-0.29297 m -24.51172,0.0977 0,0.19531 c 0.37757,0.1302 1.06767,0.54035 2.07032,1.23047 0.84631,0.5078 2.58459,0.76171 5.21484,0.76172 l 0.46875,0 0,-0.0977 c -1.86202,-10e-6 -4.25785,-0.59897 -7.1875,-1.79687 -4e-5,-0.0651 -0.13025,-0.16277 -0.39063,-0.29297 l -0.17578,0 m 17.98828,1.62109 0,0.0781 c 0.5338,-0.1172 0.8463,-0.1758 0.9375,-0.17578 l 0,-0.0977 -0.19531,0 c -0.4688,0.1302 -0.7162,0.1953 -0.74219,0.19531 m -6.15234,0.46875 0.37109,0 0,-0.19531 -0.19531,0 c -0.11723,0.026 -0.17583,0.0911 -0.17578,0.19531 m -0.95703,0 0,0.0977 0.56641,0 c 0.13016,-10e-6 0.19526,-0.0651 0.19531,-0.19531 l -0.29297,0 -0.46875,0.0977 m -3.02734,0 c 0.013,0.11718 0.0781,0.17577 0.19531,0.17578 l 0.0977,0 0,-0.17578 -0.29296,0 m 1.42578,0 0,0.17578 c 0.32547,-0.0521 0.70308,-0.0781 1.13281,-0.0781 l 0,-0.0977 -1.13281,0 m 10.21484,1.23047 0.19531,0.0977 c 1.13276,-0.32554 1.69916,-0.57944 1.69922,-0.76172 l -0.0976,0 c -1.19798,0.29946 -1.79694,0.52082 -1.79688,0.66406 m -16.85547,-0.29297 0,0.0977 c 0.59892,0.5729 2.18095,1.26952 4.7461,2.08984 l 0.17578,0 c 0.19527,-1e-5 0.29292,-0.0326 0.29297,-0.0977 1.32808,0.13019 1.99214,0.22133 1.99218,0.27343 l 0.17578,-0.0781 2.08985,0 c 2.31766,-2e-5 3.61323,-0.16278 3.88672,-0.48828 l -1.13282,0 c -3.90629,-2e-5 -7.76046,-0.50132 -11.5625,-1.50391 -0.11722,-10e-6 -0.33858,-0.0977 -0.66406,-0.29297 m 13.06641,0.29297 0,0.0977 0.0977,0 c 0.59891,-0.19533 0.94396,-0.29298 1.03516,-0.29297 l 0,-0.0977 -0.17578,0 -0.95703,0.29297 m 2.94922,0.27344 0.0781,0 c 0.32547,-0.0781 0.48823,-0.16929 0.48828,-0.27344 l -0.19531,0 c -0.24745,0.0911 -0.37115,0.18228 -0.37109,0.27344 m -7.96875,0 -0.66407,0 0,0.19531 0.48829,0 c 0.40359,-10e-6 0.8463,0.0651 1.32812,0.19531 0.18224,-0.0521 0.30594,-0.1823 0.37109,-0.39062 -0.0652,-2e-5 -0.0977,-0.0326 -0.0977,-0.0977 -0.62505,0.0651 -1.10031,0.0976 -1.42578,0.0977 m 7.77343,1.89453 c 0.0651,0.13019 0.0976,0.22785 0.0977,0.29297 0.5338,-2e-5 1.76427,-0.37762 3.69141,-1.13281 l 0,-0.0977 -0.0977,0 c -0.78131,-2e-5 -2.01177,0.31248 -3.69141,0.9375 m -6.8164,1.13281 0,0.0977 1.03515,0 0.56641,-0.0977 c 0.10412,0.0651 0.26037,0.0976 0.46875,0.0977 l 0.48828,-0.0977 0,-0.0781 -1.62109,0 -0.9375,0.0781" />
      <path
         transform="translate(0,552.36218)"
         inkscape:connector-curvature="0"
         id="path3801"
         d=""
         style="fill:#a0a0a0;stroke:none" />
    </g>
  </g>
</svg>
