<?xml version="1.0" encoding="UTF-8" standalone="no"?>
<!-- Generator: Adobe Illustrator 16.0.4, SVG Export Plug-In . SVG Version: 6.00 Build 0)  -->

<svg
   xmlns:dc="http://purl.org/dc/elements/1.1/"
   xmlns:cc="http://creativecommons.org/ns#"
   xmlns:rdf="http://www.w3.org/1999/02/22-rdf-syntax-ns#"
   xmlns:svg="http://www.w3.org/2000/svg"
   xmlns="http://www.w3.org/2000/svg"
   xmlns:sodipodi="http://sodipodi.sourceforge.net/DTD/sodipodi-0.dtd"
   xmlns:inkscape="http://www.inkscape.org/namespaces/inkscape"
   version="1.1"
   id="Capa_1"
   x="0px"
   y="0px"
   width="120"
   height="120"
   viewBox="0 0 120 120"
   enable-background="new 0 0 100 60"
   xml:space="preserve"
   inkscape:version="0.48.2 r9819"
   sodipodi:docname="Flaticon_16905.svg"><metadata
   id="metadata13"><rdf:RDF><cc:Work
       rdf:about=""><dc:format>image/svg+xml</dc:format><dc:type
         rdf:resource="http://purl.org/dc/dcmitype/StillImage" /><dc:title></dc:title></cc:Work></rdf:RDF></metadata><defs
   id="defs11" /><sodipodi:namedview
   pagecolor="#ffffff"
   bordercolor="#666666"
   borderopacity="1"
   objecttolerance="10"
   gridtolerance="10"
   guidetolerance="10"
   inkscape:pageopacity="0"
   inkscape:pageshadow="2"
   inkscape:window-width="1210"
   inkscape:window-height="851"
   id="namedview9"
   showgrid="false"
   inkscape:zoom="2.4890159"
   inkscape:cx="122.08036"
   inkscape:cy="73.504854"
   inkscape:window-x="0"
   inkscape:window-y="0"
   inkscape:window-maximized="0"
   inkscape:current-layer="layer3" />



<g
   inkscape:groupmode="layer"
   id="layer3"
   inkscape:label="1"
   style="display:inline"
   transform="translate(0,-80)"><path
     style="fill:#fe3e36;fill-opacity:1;fill-rule:nonzero;stroke:#ffffff;stroke-width:0;stroke-miterlimit:4;stroke-opacity:1;stroke-dasharray:none;display:inline"
     d="M 60,79.999996 C 26.862916,79.999996 0,106.86291 0,140 c 0,33.13709 26.862916,60 60,60 33.13708,0 60,-26.86291 60,-60 0,-33.13709 -26.86292,-60.000004 -60,-60.000004 z m 0,29.031254 50,20 -50,25 -50.0000001,-25 50.0000001,-20 z m 0,17.5 c -2.205,0 -4,1.122 -4,2.5 0,1.378 1.795,2.5 4,2.5 2.205,0 4,-1.122 4,-2.5 0,-1.378 -1.795,-2.5 -4,-2.5 z m -44,7.5 c 0.08135,-0.0167 0.16375,0 0.25,0 0.69,0 1.25,0.56 1.25,1.25 l 0,19.09375 c 0.744,0.432 1.25,1.23325 1.25,2.15625 0,0.923 -0.506,1.692 -1.25,2.125 l 0,4.125 c 0,0.69 -0.56,1.25 -1.25,1.25 -0.69,0 -1.25,-0.56 -1.25,-1.25 l 0,-4.125 c -0.744,-0.432 -1.25,-1.202 -1.25,-2.125 0,-0.923 0.506,-1.72325 1.25,-2.15625 l 0,-19.09375 c 0,-0.60375 0.430566,-1.13338 1,-1.25 z m 19,10.5 25,12 25,-12 0,12 -25,12.5 -25,-12.5 0,-12 z"
     id="path3782"
     inkscape:connector-curvature="0" /></g></svg>