<?xml version="1.0" encoding="UTF-8" standalone="no"?>
<!-- Generator: Adobe Illustrator 16.0.4, SVG Export Plug-In . SVG Version: 6.00 Build 0)  -->

<svg
   xmlns:dc="http://purl.org/dc/elements/1.1/"
   xmlns:cc="http://creativecommons.org/ns#"
   xmlns:rdf="http://www.w3.org/1999/02/22-rdf-syntax-ns#"
   xmlns:svg="http://www.w3.org/2000/svg"
   xmlns="http://www.w3.org/2000/svg"
   xmlns:sodipodi="http://sodipodi.sourceforge.net/DTD/sodipodi-0.dtd"
   xmlns:inkscape="http://www.inkscape.org/namespaces/inkscape"
   version="1.1"
   id="Capa_1"
   x="0px"
   y="0px"
   width="120"
   height="120"
   viewBox="0 0 120 120"
   enable-background="new 0 0 21.754 21.646"
   xml:space="preserve"
   inkscape:version="0.48.2 r9819"
   sodipodi:docname="skills.svg"><metadata
   id="metadata9"><rdf:RDF><cc:Work
       rdf:about=""><dc:format>image/svg+xml</dc:format><dc:type
         rdf:resource="http://purl.org/dc/dcmitype/StillImage" /></cc:Work></rdf:RDF></metadata><defs
   id="defs7" /><sodipodi:namedview
   pagecolor="#ffffff"
   bordercolor="#666666"
   borderopacity="1"
   objecttolerance="10"
   gridtolerance="10"
   guidetolerance="10"
   inkscape:pageopacity="0"
   inkscape:pageshadow="2"
   inkscape:window-width="1014"
   inkscape:window-height="819"
   id="namedview5"
   showgrid="false"
   inkscape:zoom="0.96367228"
   inkscape:cx="57.263575"
   inkscape:cy="62.707859"
   inkscape:window-x="325"
   inkscape:window-y="34"
   inkscape:window-maximized="0"
   inkscape:current-layer="layer1" />

<g
   inkscape:groupmode="layer"
   id="layer1"
   inkscape:label="Layer"><path
     style="fill:#fe3e36;fill-opacity:1;fill-rule:nonzero;stroke:#ffffff;stroke-width:1.18810415;stroke-miterlimit:4;stroke-opacity:1;stroke-dasharray:none"
     d="M 60 0.59375 C 27.191002 0.59375 0.59375 27.191 0.59375 60 C 0.59375 92.809 27.191002 119.40625 60 119.40625 C 92.808998 119.40625 119.40625 92.809 119.40625 60 C 119.40625 27.191 92.808998 0.59375 60 0.59375 z M 41.75 29.09375 C 48.83159 29.07377 54.60502 34.827515 54.625 41.90625 C 54.627854 43.467568 54.35182 44.9594 53.84375 46.34375 L 73.1875 65.5625 C 74.118012 65.348425 75.094734 65.2529 76.09375 65.25 C 83.17534 65.230019 88.91752 70.952512 88.9375 78.03125 C 88.940354 79.321403 88.763041 80.574017 88.40625 81.75 L 86.0625 79.40625 C 85.465945 75.881162 82.378147 73.1732 78.6875 73.1875 C 74.574413 73.198915 71.2414 76.548869 71.25 80.65625 C 71.261417 83.596211 72.988338 86.139218 75.46875 87.34375 L 76.4375 90.875 C 76.346161 90.8777 76.24759 90.90625 76.15625 90.90625 C 69.068952 90.926227 63.30694 85.172493 63.28125 78.09375 C 63.278395 76.32692 63.639027 74.657777 64.28125 73.125 L 45.3125 54.28125 C 44.202166 54.598081 43.02559 54.7471 41.8125 54.75 C 34.728056 54.772835 28.96034 49.047485 28.9375 41.96875 C 28.934646 40.678594 29.146063 39.425984 29.5 38.25 L 31.84375 40.59375 C 32.43745 44.118846 35.525249 46.8211 39.21875 46.8125 C 43.328984 46.798228 46.6336 43.451129 46.625 39.34375 C 46.619292 36.398083 44.915058 33.857919 42.4375 32.65625 L 41.46875 29.125 C 41.560089 29.1221 41.65866 29.09375 41.75 29.09375 z M 78.9375 29.125 L 91.0625 41.25 L 83.03125 49.28125 L 70.90625 37.15625 L 78.9375 29.125 z M 67.625 40.4375 L 79.78125 52.59375 L 71.09375 61.25 L 64.78125 54.96875 L 69.28125 50.46875 C 70.00054 49.74946 70.00054 48.565895 69.28125 47.84375 C 68.561959 47.124459 67.37554 47.124459 66.65625 47.84375 L 62.1875 52.34375 L 58.9375 49.125 L 67.625 40.4375 z M 48.625 59.4375 L 51.84375 62.65625 L 41 73.5 C 40.280709 74.219292 40.280709 75.405708 41 76.125 C 41.719291 76.844292 42.905709 76.844292 43.625 76.125 L 54.46875 65.28125 L 60.78125 71.59375 L 46.9375 85.40625 L 29.90625 90.28125 L 34.78125 73.28125 L 48.625 59.4375 z "
     id="path2989" /></g><g
   inkscape:groupmode="layer"
   id="layer2"
   inkscape:label="Layer#1"
   style="display:inline" /></svg>