<?xml version="1.0" encoding="UTF-8" standalone="no"?>
<!-- Generator: IcoMoon.io -->

<svg
   xmlns:dc="http://purl.org/dc/elements/1.1/"
   xmlns:cc="http://creativecommons.org/ns#"
   xmlns:rdf="http://www.w3.org/1999/02/22-rdf-syntax-ns#"
   xmlns:svg="http://www.w3.org/2000/svg"
   xmlns="http://www.w3.org/2000/svg"
   xmlns:sodipodi="http://sodipodi.sourceforge.net/DTD/sodipodi-0.dtd"
   xmlns:inkscape="http://www.inkscape.org/namespaces/inkscape"
   version="1.1"
   id="Layer_1"
   x="0px"
   y="0px"
   width="40"
   height="40"
   viewBox="0 0 40 40"
   enable-background="new 0 0 16 16"
   xml:space="preserve"
   inkscape:version="0.48.2 r9819"
   sodipodi:docname="compose2.svg"
   style="fill:#000000"
   inkscape:export-filename="/Users/rsagalyn/Dropbox/htdocs/personalsite/images/teaching40x40.png"
   inkscape:export-xdpi="89.599998"
   inkscape:export-ydpi="89.599998"><metadata
   id="metadata9"><rdf:RDF><cc:Work
       rdf:about=""><dc:format>image/svg+xml</dc:format><dc:type
         rdf:resource="http://purl.org/dc/dcmitype/StillImage" /><dc:title></dc:title></cc:Work></rdf:RDF></metadata><defs
   id="defs7" /><sodipodi:namedview
   pagecolor="#ffffff"
   bordercolor="#666666"
   borderopacity="1"
   objecttolerance="10"
   gridtolerance="10"
   guidetolerance="10"
   inkscape:pageopacity="0"
   inkscape:pageshadow="2"
   inkscape:window-width="885"
   inkscape:window-height="803"
   id="namedview5"
   showgrid="false"
   inkscape:zoom="6.4649765"
   inkscape:cx="14"
   inkscape:cy="14"
   inkscape:window-x="0"
   inkscape:window-y="0"
   inkscape:window-maximized="0"
   inkscape:current-layer="Layer_1" /> <path
   style="fill:#fe3e36;fill-opacity:1;fill-rule:nonzero;stroke:#ffffff;stroke-width:0;stroke-miterlimit:4;stroke-opacity:1;stroke-dasharray:none"
   d="M 20,0 C 8.9543053,0 0,8.9543057 0,20 0,31.045696 8.9543053,40 20,40 31.045694,40 40,31.045696 40,20 40,8.9543057 31.045694,0 20,0 z m -7.142857,8.5714286 8.839286,0 -2.857143,2.8571424 -5.982143,0 c -0.79,0 -1.428572,0.638572 -1.428572,1.428572 l 0,14.285714 c 0,0.79 0.638572,1.428572 1.428572,1.428572 l 14.285714,0 c 0.79,0 1.428572,-0.638572 1.428572,-1.428572 l 0,-5.982143 2.857142,-2.857143 0,8.839286 c 0,2.367143 -1.918571,4.285714 -4.285714,4.285714 l -14.285714,0 C 10.49,31.428571 8.5714286,29.51 8.5714286,27.142857 l 0,-14.285714 C 8.5714286,10.49 10.49,8.5714286 12.857143,8.5714286 z m 12.857143,0 5.714285,5.7142854 -10,10 -8.571428,2.857143 2.857143,-8.571428 10,-10.0000004 z m -2.857143,5.7142854 -4.285714,4.285715 2.857142,2.857142 4.285715,-4.285714 -2.857143,-2.857143 z M 17.142857,20 15.714286,24.285714 20,22.857143 17.142857,20 z"
   id="path2986"
   inkscape:connector-curvature="0" /><g
   inkscape:groupmode="layer"
   id="layer1"
   inkscape:label="Layer"
   style="display:inline"
   transform="translate(0,-8)" /></svg>