<?xml version="1.0" encoding="UTF-8" standalone="no"?>
<!-- Generator: Adobe Illustrator 16.0.0, SVG Export Plug-In . SVG Version: 6.00 Build 0)  -->

<svg
   xmlns:dc="http://purl.org/dc/elements/1.1/"
   xmlns:cc="http://creativecommons.org/ns#"
   xmlns:rdf="http://www.w3.org/1999/02/22-rdf-syntax-ns#"
   xmlns:svg="http://www.w3.org/2000/svg"
   xmlns="http://www.w3.org/2000/svg"
   xmlns:sodipodi="http://sodipodi.sourceforge.net/DTD/sodipodi-0.dtd"
   xmlns:inkscape="http://www.inkscape.org/namespaces/inkscape"
   version="1.1"
   id="Capa_1"
   x="0px"
   y="0px"
   width="120"
   height="120"
   viewBox="0 0 120 120"
   xml:space="preserve"
   inkscape:version="0.48.2 r9819"
   sodipodi:docname="Flaticon_1099.svg"><metadata
   id="metadata41"><rdf:RDF><cc:Work
       rdf:about=""><dc:format>image/svg+xml</dc:format><dc:type
         rdf:resource="http://purl.org/dc/dcmitype/StillImage" /><dc:title></dc:title></cc:Work></rdf:RDF></metadata><defs
   id="defs39" /><sodipodi:namedview
   pagecolor="#ffffff"
   bordercolor="#666666"
   borderopacity="1"
   objecttolerance="10"
   gridtolerance="10"
   guidetolerance="10"
   inkscape:pageopacity="0"
   inkscape:pageshadow="2"
   inkscape:window-width="1054"
   inkscape:window-height="860"
   id="namedview37"
   showgrid="false"
   inkscape:zoom="2.2767616"
   inkscape:cx="13.408946"
   inkscape:cy="75.072135"
   inkscape:window-x="0"
   inkscape:window-y="0"
   inkscape:window-maximized="0"
   inkscape:current-layer="layer1" />

















<g
   inkscape:groupmode="layer"
   id="layer1"
   inkscape:label="Layer"><path
     style="fill:#fe3e36;fill-opacity:1;fill-rule:nonzero;stroke:#ffffff;stroke-width:1.44069421;stroke-miterlimit:4;stroke-opacity:1;stroke-dasharray:none"
     d="M 60 0.71875 C 27.260752 0.71875 0.71875 27.260752 0.71875 60 C 0.71875 92.739248 27.260752 119.28125 60 119.28125 C 92.739248 119.28125 119.28125 92.739248 119.28125 60 C 119.28125 27.260752 92.739248 0.71875 60 0.71875 z M 57.8125 33.3125 L 62 33.3125 C 62 33.3125 70.875 32.786546 70.875 42.125 L 70.875 44.3125 L 88.375 44.3125 C 88.375 44.3125 92.90625 44.11851 92.90625 48.71875 L 92.90625 57.21875 C 92.90625 57.21875 75.203656 64.09375 59.875 64.09375 C 45.845697 64.09375 27.09375 57.28125 27.09375 57.28125 L 27.09375 48.71875 C 27.09375 48.71875 26.939853 44.3125 31.40625 44.3125 L 48.96875 44.3125 L 48.96875 42.1875 C 48.96875 42.1875 48.478163 33.3125 57.8125 33.3125 z M 60.03125 37.46875 C 60.03125 37.46875 54.875 37.543175 54.875 41.9375 L 54.875 44.1875 L 65.125 44.1875 L 65.125 42 C 65.125 42 65.267785 37.46875 60.03125 37.46875 z M 54.5625 58.28125 L 54.5625 62.46875 L 65.4375 62.46875 L 65.4375 58.28125 L 54.5625 58.28125 z M 27.09375 60.1875 C 27.09375 60.1875 42.416049 66.96875 59.78125 66.96875 C 78.65996 66.96875 92.90625 60.375 92.90625 60.375 L 92.90625 82.28125 C 92.90625 82.28125 93.173651 86.6895 88.4375 86.6875 L 31.3125 86.6875 C 31.3125 86.6875 27.09375 86.74353 27.09375 82.28125 L 27.09375 60.1875 z M 54.5625 67.90625 L 54.5625 70.71875 C 54.5625 72.22402 55.778036 73.4375 57.28125 73.4375 L 62.71875 73.4375 C 64.219904 73.4375 65.4375 72.22402 65.4375 70.71875 L 65.4375 67.90625 L 54.5625 67.90625 z "
     id="path3037" /></g><g
   inkscape:groupmode="layer"
   id="layer2"
   inkscape:label="Layer#1"><g
     id="g7"
     transform="matrix(2.0591961,0,0,2.0591961,27.093978,33.320957)">
</g><g
     id="g9"
     transform="matrix(2.0591961,0,0,2.0591961,27.093978,33.320957)">
</g><g
     id="g11"
     transform="matrix(2.0591961,0,0,2.0591961,27.093978,33.320957)">
</g><g
     id="g13"
     transform="matrix(2.0591961,0,0,2.0591961,27.093978,33.320957)">
</g><g
     id="g15"
     transform="matrix(2.0591961,0,0,2.0591961,27.093978,33.320957)">
</g><g
     id="g17"
     transform="matrix(2.0591961,0,0,2.0591961,27.093978,33.320957)">
</g><g
     id="g19"
     transform="matrix(2.0591961,0,0,2.0591961,27.093978,33.320957)">
</g><g
     id="g21"
     transform="matrix(2.0591961,0,0,2.0591961,27.093978,33.320957)">
</g><g
     id="g23"
     transform="matrix(2.0591961,0,0,2.0591961,27.093978,33.320957)">
</g><g
     id="g25"
     transform="matrix(2.0591961,0,0,2.0591961,27.093978,33.320957)">
</g><g
     id="g27"
     transform="matrix(2.0591961,0,0,2.0591961,27.093978,33.320957)">
</g><g
     id="g29"
     transform="matrix(2.0591961,0,0,2.0591961,27.093978,33.320957)">
</g><g
     id="g31"
     transform="matrix(2.0591961,0,0,2.0591961,27.093978,33.320957)">
</g><g
     id="g33"
     transform="matrix(2.0591961,0,0,2.0591961,27.093978,33.320957)">
</g><g
     id="g35"
     transform="matrix(2.0591961,0,0,2.0591961,27.093978,33.320957)">
</g></g></svg>